<?xml version="1.0" standalone="no"?>
<!DOCTYPE svg PUBLIC "-//W3C//DTD SVG 20010904//EN"
 "http://www.w3.org/TR/2001/REC-SVG-20010904/DTD/svg10.dtd">
<svg version="1.0" xmlns="http://www.w3.org/2000/svg"
 width="225.000000pt" height="225.000000pt" viewBox="0 0 225.000000 225.000000"
 preserveAspectRatio="xMidYMid meet">
<metadata>
Created by potrace 1.16, written by Peter Selinger 2001-2019
</metadata>
<g transform="translate(0.000000,225.000000) scale(0.100000,-0.100000)"
fill="#000000" stroke="none">
<path d="M0 1125 l0 -1125 1125 0 1125 0 0 1125 0 1125 -1125 0 -1125 0 0
-1125z m1210 895 c218 -23 400 -108 551 -259 385 -385 341 -1024 -92 -1351
-73 -55 -210 -130 -238 -130 -8 0 -11 42 -11 143 0 136 -1 145 -29 202 -16 33
-45 76 -65 95 l-37 34 83 18 c156 34 266 108 319 213 21 43 24 64 24 150 0
106 -11 141 -70 220 -18 23 -21 35 -14 54 20 51 22 164 5 205 -16 38 -17 38
-58 32 -59 -10 -127 -42 -164 -77 l-31 -30 -64 16 c-82 19 -238 19 -312 0
l-57 -15 -52 40 c-51 39 -128 70 -173 70 -14 0 -26 -10 -33 -25 -15 -32 -15
-144 -1 -204 8 -38 7 -47 -10 -65 -11 -12 -32 -48 -48 -81 -24 -51 -28 -72
-28 -145 1 -103 22 -156 89 -228 58 -62 151 -109 261 -131 l84 -17 -33 -26
c-17 -14 -43 -46 -56 -71 -28 -52 -39 -57 -135 -57 -81 1 -94 7 -158 76 -53
58 -101 84 -120 65 -8 -8 -3 -19 20 -43 18 -18 45 -66 62 -107 48 -119 82
-141 214 -141 l67 0 0 -95 c0 -113 4 -111 -117 -61 -239 98 -425 298 -509 543
-144 427 47 891 451 1096 76 38 211 77 300 86 44 5 81 9 81 10 1 0 48 -4 104
-9z"/>
</g>
</svg>
