<?xml version="1.0" standalone="no"?>
<!DOCTYPE svg PUBLIC "-//W3C//DTD SVG 20010904//EN"
 "http://www.w3.org/TR/2001/REC-SVG-20010904/DTD/svg10.dtd">
<svg version="1.0" xmlns="http://www.w3.org/2000/svg"
 width="1080.000000pt" height="1080.000000pt" viewBox="0 0 1080.000000 1080.000000"
 preserveAspectRatio="xMidYMid meet">

<g transform="translate(0.000000,1080.000000) scale(0.100000,-0.100000)"
fill="#000000" stroke="none">
<path d="M3760 7363 c0 -2035 -9 -2282 -90 -2496 -52 -138 -208 -321 -350
-409 -97 -61 -190 -100 -326 -137 -265 -72 -528 -99 -1206 -122 l-357 -12
-283 -361 c-156 -198 -361 -459 -457 -581 -96 -121 -195 -247 -220 -279 -25
-33 -110 -140 -189 -239 -79 -99 -141 -181 -139 -184 5 -5 1125 13 1747 27
1007 24 1316 62 1875 231 544 163 994 424 1330 770 240 247 356 436 478 779
125 349 146 477 167 980 10 258 27 1680 34 2868 l4 702 -1009 0 -1009 0 0
-1537z"/>
<path d="M6460 8076 l0 -826 1383 0 1382 0 190 247 c105 136 300 389 435 563
433 557 605 789 593 801 -27 27 -273 31 -2095 36 l-1888 4 0 -825z"/>
<path d="M6460 5765 l0 -725 1274 0 1274 0 280 358 c369 470 469 599 709 911
111 145 111 146 85 153 -58 16 -1009 28 -2284 28 l-1338 0 0 -725z"/>
<path d="M6271 4182 c-6 -11 -49 -105 -96 -208 -47 -104 -116 -241 -152 -304
-216 -377 -525 -718 -906 -1000 -48 -35 -87 -69 -87 -76 0 -6 12 -15 28 -18
66 -16 996 -25 2537 -25 l1660 0 205 266 c113 147 286 371 385 498 303 389
615 808 615 826 0 47 -137 50 -2237 56 -1930 5 -1941 5 -1952 -15z"/>
</g>
</svg>
