<?xml version="1.0" standalone="no"?>
<!DOCTYPE svg PUBLIC "-//W3C//DTD SVG 20010904//EN"
 "http://www.w3.org/TR/2001/REC-SVG-20010904/DTD/svg10.dtd">
<svg version="1.0" xmlns="http://www.w3.org/2000/svg"
 width="225.000000pt" height="225.000000pt" viewBox="0 0 225.000000 225.000000"
 preserveAspectRatio="xMidYMid meet">
<metadata>
Created by potrace 1.16, written by Peter Selinger 2001-2019
</metadata>
<g transform="translate(0.000000,225.000000) scale(0.100000,-0.100000)"
fill="#000000" stroke="none">
<path d="M1008 2010 c-254 -40 -456 -161 -602 -360 -375 -509 -102 -1242 517
-1390 112 -27 292 -27 404 0 504 121 802 641 647 1132 -114 362 -431 604 -814
622 -52 3 -121 1 -152 -4z m412 -441 c55 -25 114 -80 143 -134 21 -37 22 -56
25 -288 4 -296 -1 -322 -82 -402 -79 -79 -105 -85 -381 -85 -276 0 -302 6
-381 85 -81 80 -86 106 -82 402 3 279 6 289 85 365 76 73 96 78 378 78 230 0
254 -2 295 -21z"/>
<path d="M865 1486 c-40 -18 -85 -63 -101 -103 -21 -49 -20 -460 1 -511 21
-49 52 -81 100 -103 35 -16 67 -19 260 -19 245 0 275 7 328 69 44 53 49 88 45
332 -3 219 -4 226 -27 261 -13 19 -40 46 -59 59 -35 24 -40 24 -276 26 -185 2
-248 0 -271 -11z m332 -141 c53 -16 112 -65 139 -116 42 -82 23 -197 -44 -261
-55 -53 -92 -68 -164 -68 -54 0 -72 5 -118 33 -194 116 -113 415 116 426 11 1
43 -6 71 -14z"/>
<path d="M1060 1251 c-69 -36 -97 -140 -54 -198 69 -92 181 -94 242 -3 20 29
23 44 20 88 -9 105 -115 163 -208 113z"/>
</g>
</svg>
