<?xml version="1.0" standalone="no"?>
<!DOCTYPE svg PUBLIC "-//W3C//DTD SVG 20010904//EN"
 "http://www.w3.org/TR/2001/REC-SVG-20010904/DTD/svg10.dtd">
<svg version="1.0" xmlns="http://www.w3.org/2000/svg"
 width="225.000000pt" height="225.000000pt" viewBox="0 0 225.000000 225.000000"
 preserveAspectRatio="xMidYMid meet">
<metadata>
Created by potrace 1.16, written by Peter Selinger 2001-2019
</metadata>
<g transform="translate(0.000000,225.000000) scale(0.100000,-0.100000)"
fill="#000000" stroke="none">
<path d="M1045 2244 c-199 -27 -294 -53 -420 -117 -317 -159 -534 -446 -602
-796 -21 -112 -21 -300 0 -412 89 -459 437 -807 896 -896 112 -21 300 -21 412
0 536 104 912 558 912 1102 0 539 -378 1000 -902 1099 -82 16 -247 27 -296 20z
m-337 -434 c43 -27 76 -99 67 -146 -3 -19 -20 -50 -36 -69 -85 -97 -235 -46
-246 84 -10 112 118 190 215 131z m72 -825 l0 -495 -145 0 -145 0 0 495 0 495
145 0 145 0 0 -495z m420 444 l0 -52 21 27 c43 54 93 71 214 71 103 0 113 -2
165 -30 37 -20 65 -45 87 -78 63 -94 73 -170 73 -559 l0 -318 -145 0 -145 0 0
305 c0 336 -2 350 -60 380 -37 19 -113 19 -150 0 -58 -30 -60 -44 -60 -380 l0
-305 -145 0 -145 0 0 495 0 495 145 0 145 0 0 -51z"/>
</g>
</svg>
